<?xml version="1.0" standalone="no"?><!DOCTYPE svg PUBLIC "-//W3C//DTD SVG 1.1//EN" "http://www.w3.org/Graphics/SVG/1.1/DTD/svg11.dtd"><svg class="icon" width="200px" height="200.00px" viewBox="0 0 1024 1024" version="1.1" xmlns="http://www.w3.org/2000/svg"><path d="M28.13795657 81.74866794h60.42097575c4.2010494 0 7.53717638 3.33612698 7.53717638 7.53717638s-3.33612698 7.53717638-7.53717638 7.5371774H28.13795657c-4.2010494 0-7.53717638-3.33612698-7.53717638-7.5371774s3.33612698-7.53717638 7.53717638-7.53717638z m0 0" fill="#F4C15B" /><path d="M58.41022476 51.47639975c4.2010494 0 7.53717638 3.33612698 7.5371774 7.53717638v60.42097575c0 4.2010494-3.33612698 7.53717638-7.5371774 7.53717638-4.2010494 0-7.53717638-3.33612698-7.53717638-7.53717638V59.01357613c0-4.2010494 3.33612698-7.53717638 7.53717638-7.53717638z m0 0" fill="#F4C15B" /><path d="M359.65017905 120.91727543l29.16022552 7.78429765c4.07748876 1.11204267 6.42513473 5.18953143 5.31309206 9.26702019-1.11204267 4.07748876-5.18953143 6.42513473-9.2670212 5.31309207l-29.16022553-7.78429765c-4.07748876-1.11204267-6.42513473-5.18953143-5.31309206-9.26702019 1.23560229-3.95392914 5.18953143-6.42513473 9.26702121-5.31309207z m0 0" fill="#4680E8" /><path d="M413.39889981 78.53610057l7.78429663 29.16022451c1.11204267 4.07748876-1.23560229 8.15497854-5.31309206 9.26702121-4.07748876 1.11204267-8.15497854-1.23560229-9.26702019-5.31309206L398.81878654 82.36646908c-1.11204267-4.07748876 1.23560229-8.15497854 5.31309206-9.2670212 4.07748876-0.98848203 8.27853816 1.35916292 9.26702121 5.43665269z m0 0" fill="#8FB3FF" /><path d="M477.0324419 103.86595657L455.65651403 125.24188445c-2.96544711 2.96544711-7.66073702 2.96544711-10.62618413 0-2.96544711-2.96544711-2.96544711-7.66073702 0-10.62618311l21.37592788-21.37592788c2.96544711-2.96544711 7.66073702-2.96544711 10.62618412 0 2.96544711 2.84188648 2.96544711 7.66073702 0 10.62618311z m0 0" fill="#ABC3EF" /><path d="M933.58766324 117.95182832c-24.95917613 0-45.22306133 20.26388521-45.22306134 45.34662197 0 24.95917613 20.26388521 45.22306133 45.22306134 45.22306133 24.95917613 0 45.34662197-20.26388521 45.34662197-45.22306133-0.12356063-25.08273575-20.38744584-45.34662197-45.34662197-45.34662197z m0 75.49532952c-16.68063695 0-30.27226819-13.59163022-30.27226718-30.27226819s13.59163022-30.27226819 30.27226718-30.27226717 30.27226819 13.59163022 30.27226819 30.27226717c-0.12356063 16.80419759-13.71519086 30.27226819-30.27226819 30.27226819z m0 0" fill="#F4C15B" /><path d="M911.96461511 383.72998299l-453.21909435-60.42097473v239.45981562l453.21909435 47.57070628V383.72998299z m0 0" fill="#4680E8" /><path d="M96.0961087 401.76978388l362.52585143-78.33721499v271.95616813L96.0961087 673.725952V401.76978388z m0 0" fill="#8FB3FF" /><path d="M519.16649651 492.4630268l392.7981186-108.60948318V897.37005308l-392.7981186 108.60948318V492.4630268z m0 0" fill="#4680E8" /><path d="M96.0961087 401.76978388l422.94682717 90.69324292v510.79818362L96.0961087 900.33549918V401.76978388z m0 0" fill="#8FB3FF" /><path d="M519.16649651 491.59810438L96.0961087 401.76978388l-90.69324292 181.2629252 438.14474057 102.92571124 75.61889016-194.36031594z m0 0" fill="#ABC3EF" /><path d="M760.47971657 31.70675505L715.1330946 50.11723683v60.42097473l45.34662197-18.41048076V31.70675505z m0 0" fill="#F4C15B" /><path d="M662.12573562 92.1277308l45.34662197 18.41048076V50.11723683l-45.34662197-18.41048178v60.42097575z m98.35398095-66.47542857L711.92052724 6.50045867l-49.67123099 17.17487848 49.54767137 21.00524698 48.68274895-19.0282819z m0 0" fill="#E5CF6E" /><path d="M519.16649651 492.4630268l392.7981186-108.60948318 105.7675967 181.26292622-377.72376483 123.68383594-120.84195047-196.33727898z m0 0" fill="#8FB3FF" /><path d="M731.69017194 397.19805359S748.49436952 291.18333664 836.22216533 238.42309791c0 0 7.66073702 8.64921905 22.98221207 28.29530311 0 0-40.0335299-6.3015741-127.51420546 130.47965257z m0 0" fill="#ABC3EF" /><path d="M519.16649651 392.87344356s1.72984381-58.07332978 44.23457828-189.04722286c0 0 7.66073702 8.64921905 22.98221207 28.29530311-0.12356063 0-16.18639644 13.96231111-67.21679035 160.75191975z m0 0" fill="#8FB3FF" /><path d="M371.38840483 382.37082007S323.57057829 241.75922591 206.43543568 178.37280407c0 0-19.52252343 27.43038171-41.02201092 36.07960076-0.12356063 0 134.80426159 46.95290514 205.97498007 167.91841524z m0 0" fill="#E5CF6E" /></svg>