<?xml version="1.0" standalone="no"?><!DOCTYPE svg PUBLIC "-//W3C//DTD SVG 1.1//EN" "http://www.w3.org/Graphics/SVG/1.1/DTD/svg11.dtd"><svg class="icon" width="200px" height="200.00px" viewBox="0 0 1024 1024" version="1.1" xmlns="http://www.w3.org/2000/svg"><path d="M22.9376 59.74016H83.968c4.096 0 7.5776 3.4816 7.5776 7.5776s-3.4816 7.5776-7.5776 7.5776H22.9376c-4.096 0-7.5776-3.4816-7.5776-7.5776s3.2768-7.5776 7.5776-7.5776z" fill="#F1F2F6" /><path d="M53.4528 29.22496c4.3008 0 7.5776 3.4816 7.5776 7.5776v61.0304c0 4.3008-3.4816 7.5776-7.5776 7.5776s-7.5776-3.4816-7.5776-7.5776v-61.0304c0-4.3008 3.4816-7.5776 7.5776-7.5776z m436.6336 60.6208l29.4912 7.9872c4.096 1.024 6.7584 5.12 5.7344 9.216s-5.12 6.7584-9.216 5.7344c-0.2048 0-0.4096 0-0.4096-0.2048l-29.4912-7.9872c-4.096-1.024-6.5536-5.3248-5.3248-9.4208 0.8192-4.096 5.12-6.3488 9.216-5.3248z m54.272-43.008l7.9872 29.4912c1.024 4.096-1.2288 8.3968-5.3248 9.4208s-8.3968-1.2288-9.4208-5.3248l-7.9872-29.696c-1.024-4.096 1.2288-8.192 5.3248-9.4208 4.3008-0.8192 8.3968 1.6384 9.4208 5.5296z m64.3072 25.6l-21.7088 21.504c-2.8672 3.072-7.7824 3.2768-10.8544 0.4096-3.072-2.8672-3.2768-7.7824-0.4096-10.8544l0.4096-0.4096 21.504-21.504c2.8672-3.072 7.7824-3.2768 10.8544-0.4096s3.2768 7.7824 0.4096 10.8544c0 0.2048 0 0.4096-0.2048 0.4096z m330.3424 23.9616c-25.3952 0-45.8752 20.6848-45.8752 45.8752 0 25.3952 20.6848 45.8752 45.8752 45.8752 25.3952 0 45.8752-20.6848 45.8752-45.8752 0-25.3952-20.48-45.8752-45.8752-45.8752z m0 76.3904c-16.9984 0-30.5152-13.7216-30.72-30.5152 0-16.9984 13.7216-30.5152 30.5152-30.72 16.9984 0 30.5152 13.7216 30.72 30.5152 0 16.9984-13.7216 30.72-30.5152 30.72z" fill="#F1F2F6" /><path d="M916.8896 365.30176l-458.5472-61.0304v242.2784l458.5472 48.128v-229.376z" fill="#EBEEF2" /><path d="M91.7504 383.52896l366.7968-79.2576v275.0464l-366.7968 79.2576v-275.0464z" fill="#E0E4E9" /><path d="M519.5776 475.27936l397.312-109.9776v519.5776l-397.312 109.9776v-519.5776z" fill="#EEF0F5" /><path d="M91.7504 383.52896l427.8272 91.7504v516.9152l-427.8272-104.2432v-504.4224z" fill="#F6F7F8" /><path d="M519.5776 474.46016l-427.8272-90.9312L0 567.02976l443.1872 104.0384 76.3904-196.608z" fill="#EAEEF5" /><path d="M519.5776 475.27936l397.312-109.9776 107.1104 183.5008-382.1568 125.1328-122.2656-198.656zM734.6176 379.02336s16.9984-107.1104 105.8816-160.5632c0 0 7.7824 8.8064 23.1424 28.672 0-0.2048-40.5504-6.5536-129.024 131.8912z" fill="#E0E4E9" /><path d="M519.5776 374.51776s1.6384-58.7776 44.6464-191.2832c0 0 7.7824 8.8064 23.1424 28.672 0.2048 0-16.1792 14.1312-67.7888 162.6112z m-149.2992-10.6496s-48.3328-142.1312-166.912-206.4384c0 0-19.8656 27.648-41.5744 36.4544-0.2048 0.2048 136.192 47.7184 208.4864 169.984z" fill="#EEF0F5" /><path d="M53.4528 29.22496c4.3008 0 7.5776 3.4816 7.5776 7.5776v61.0304c0 4.3008-3.4816 7.5776-7.5776 7.5776s-7.5776-3.4816-7.5776-7.5776v-61.0304c0-4.3008 3.4816-7.5776 7.5776-7.5776z m436.6336 60.6208l29.4912 7.9872c4.096 1.024 6.7584 5.12 5.7344 9.216s-5.12 6.7584-9.216 5.7344c-0.2048 0-0.4096 0-0.4096-0.2048l-29.4912-7.9872c-4.096-1.024-6.5536-5.3248-5.3248-9.4208 0.8192-4.096 5.12-6.3488 9.216-5.3248z m54.272-43.008l7.9872 29.4912c1.024 4.096-1.2288 8.3968-5.3248 9.4208s-8.3968-1.2288-9.4208-5.3248l-7.9872-29.696c-1.024-4.096 1.2288-8.192 5.3248-9.4208 4.3008-0.8192 8.3968 1.6384 9.4208 5.5296z m64.3072 25.6l-21.7088 21.504c-2.8672 3.072-7.7824 3.2768-10.8544 0.4096-3.072-2.8672-3.2768-7.7824-0.4096-10.8544l0.4096-0.4096 21.504-21.504c2.8672-3.072 7.7824-3.2768 10.8544-0.4096s3.2768 7.7824 0.4096 10.8544c0 0.2048 0 0.4096-0.2048 0.4096z m330.3424 23.9616c-25.3952 0-45.8752 20.6848-45.8752 45.8752 0 25.3952 20.6848 45.8752 45.8752 45.8752 25.3952 0 45.8752-20.6848 45.8752-45.8752 0-25.3952-20.48-45.8752-45.8752-45.8752z m0 76.3904c-16.9984 0-30.5152-13.7216-30.72-30.5152 0-16.9984 13.7216-30.5152 30.5152-30.72 16.9984 0 30.5152 13.7216 30.72 30.5152 0 16.9984-13.7216 30.72-30.5152 30.72z" fill="#F1F2F6" /></svg>